<svg xmlns="http://www.w3.org/2000/svg" xml:space="preserve" viewBox="0 0 512 512"><circle cx="256" cy="256" r="256" style="fill:#ff4500"/><path d="M426.8 256c-.8-20.5-18-36.8-38.8-36-9.3.3-18 3.9-24.4 10.4-29.2-20-63.5-30.6-98.6-31.5l16.6-79.8 54.8 11.5c1.4 14.1 14 24.2 28.1 22.8 14-1.4 24.2-14.1 22.8-28.1s-14.1-24.2-28.1-22.8c-8.1.8-15.5 5.6-19.4 12.6l-62.7-12.6c-4.2-.8-8.4 1.7-9.6 6.2l-18.8 88.5c-35.7.6-70.2 11.5-99.8 31.5-14.9-14-38.8-13.5-52.8 1.7-14 14.9-13.5 38.8 1.7 52.8 2.8 2.8 6.2 5.1 10.1 6.7-.3 3.7-.3 7.6 0 11.2 0 57.3 66.9 104 149.2 104s149.2-46.6 149.2-104c.3-3.7.3-7.6 0-11.2 12.7-6.4 20.8-19.6 20.5-33.9m-256 25.6c0-14 11.5-25.6 25.6-25.6s25.6 11.5 25.6 25.6-11.5 25.6-25.6 25.6c-14.3-.1-25.6-11.3-25.6-25.6m148.7 71.3v-1.1c-18.3 13.8-40.5 20.8-63.2 19.7-22.8.8-45-6.2-63.2-19.7-2.5-2.8-2-7.3.8-9.8 2.5-2 6.2-2 8.7 0 15.5 11.2 34.3 16.9 53.4 16 19.1 1.1 37.9-4.5 53.4-15.5 2.8-2.8 7.3-2.8 10.1 0 2.8 3.1 2.8 7.9 0 10.4m-3.7-43.8h-1.4l.3-.8c-14 0-25.6-11.5-25.6-25.6s11.5-25.6 25.6-25.6 25.6 11.5 25.6 25.6c.8 14-10.1 25.8-24.5 26.4" style="fill:#fff"/></svg>